<svg enable-background="new 0 0 218 138" version="1.1" viewBox="0 0 218 138" xml:space="preserve" xmlns="http://www.w3.org/2000/svg">
<path d="m26.8 68.5c-2.4 2.4-6 3.8-11.1 3.8-4.8 0-8.6-1.2-11.2-3.8-3.2-3.3-4.2-6.8-4.2-14.6h5.9c0 5.5 0.6 8.5 2.8 10.7 1.5 1.5 3.7 2.4 6.7 2.4 3.3 0 5.4-0.9 6.8-2.4 2.3-2.5 2.8-5.7 2.8-11.3 0-8.9-1.4-12.1-7.5-14.6l-7.6-3.1c-7.3-3-9.4-7.1-9.4-17.8 0-6.1 1.6-11 4.9-14.1 2.6-2.5 6-3.8 10.4-3.8 4.6 0 8.2 1.4 10.7 3.9 3.5 3.5 4.3 7.6 4.3 13.8h-5.9c0-4.5-0.6-7.4-2.7-9.8-1.4-1.6-3.5-2.6-6.5-2.6-2.8 0-4.8 0.9-6.2 2.3-2.2 2.2-3.1 5.8-3.1 10.2 0 8.2 1.2 10.6 7.7 13.3l7.6 3.1c7.7 3.1 9.2 8.7 9.2 19 0 7.5-1.2 12.2-4.4 15.4zm15.9 3.2v-71.2h5.9v71.2h-5.9zm55.7 0v-57.3l-13 37.6h-4.3l-12.8-36.4v56.1h-5.9v-71.2h5.9l15 41.9 15.1-41.9h5.9v71.2h-5.9zm33.7-31.5h-8.1v31.5h-6v-71.2h14c8.4 0 15.4 3.2 15.4 19.9 0.1 16.7-6.9 19.8-15.3 19.8zm-0.3-34.4h-7.8v29.1h7.8c5.8 0 9.8-2.5 9.8-14.5s-4-14.6-9.8-14.6zm27.2 65.9v-71.2h5.9v65.9h18.9v5.3h-24.8zm33.9 0v-71.2h24.8v5.3h-18.9v27.6h16.3v5.3h-16.3v27.7h18.9v5.3h-24.8z" fill="#544A4A"/>
<g fill="#E85858">
    <path d="m55.8 124.2c-0.2-1.3-0.2-2.6-0.3-3.6 0.4-10.6 3.5-19.8 9.2-28.2 1.6-2.4 3.4-4.7 5.5-6.7 3.5-3 7.3-5.3 12.1-5 4.9 0.3 7.8 3.6 7.1 8.5-0.5 3.5-1.8 6.7-3.6 9.7-0.2 0.4-0.5 0.7-0.9 0.9-0.3 0.2-0.8 0.4-1.2 0.3-0.5-0.2-1-0.7-0.9-1.3 0-0.6 0.3-1.2 0.5-1.7l2.4-6.6c0.3-0.8 0.5-1.6 0.5-2.5 0.1-1.1 0.2-2.4-1-3.1s-2.3-0.2-3.3 0.6c-1.2 1-2.5 2-3.5 3.2-7.4 8.8-12.5 18.6-13.9 30.1-0.4 3.7-0.1 7.3 1 10.8 0.5 2 8.3 4.5 16.5-5.8 3.7-4.6 8.5-12.1 13.3-19.2 0.4-0.5 2.4 0.4 2 1-4.3 7.5-9.7 15.5-14.3 21.1-8.5 10.5-17.4 8.9-20 7.7-4.3-2.2-6.7-5.5-7.2-10.2z"/>
    <path d="m99.9 136.2c-3.5-1.7-4.6-4.9-2.7-8.4 1.4-2.6 3.2-4.8 5.4-6.7 0.5-0.4 1.1-0.5 1.6 0s0.2 1-0.2 1.5c-0.7 1-1.5 2-2.3 3.1-0.6 1-1.2 2-1.7 3.1s-0.3 2.3 0.5 3.3c0.5 0.7 1.1 0.9 1.8 0.6s1.3-0.7 1.8-1.2c4.5-3.6 7.5-8.1 10-13.1 1.1-2.4 0.4-4.3-2.1-5.3-0.8-0.4-1.6-0.5-2.5-0.7-2.2-0.6-4.3-1.1-6.4-1.7-1.6-0.5-3.3-1.2-4.8-2-4.8-2.6-6.2-6.6-4-11.8 2-4.7 4.9-8.9 8.2-12.8 2.3-2.7 5-4.8 8-6.7 2.5-1.4 5-2.4 7.6-2.1 3.5-0.2 6.3 0.8 8.7 2.8 2.1 1.6 3.2 3.8 2.9 6.5-0.7 6.3-2.8 12.2-6.3 17.5-0.4 0.6-0.9 1.1-1.5 1.6s-1.5 0.4-2 0c-0.8-0.5-0.6-1.2-0.4-1.9 1-2.1 2.1-4.2 3-6.3 1.3-2.8 1.9-5.8 2.3-8.9 0.1-1.1 0.2-2.3 0.1-3.5-0.2-1.8-1.2-2.5-3-2-0.9 0.2-1.7 0.5-2.5 0.9-1.1 0.7-2.2 1.5-3.2 2.3-5 4.2-8.9 9.2-12.3 14.7-0.7 1.2-1.4 2.6-1.9 3.9-0.7 2.2-0.2 3.6 1.9 4.7 2.2 1.2 4.4 2.2 6.7 3 2.6 0.8 4.8 2.1 6.7 4 1.5 1.5 2.6 3.1 2.8 5.3 0.6 7.6-5.8 16.8-14.5 17.5-1.8 0.2-3.8-0.2-5.7-1.2zm33.8 0c-3.5-1.7-4.6-4.9-2.7-8.4 1.4-2.6 3.2-4.8 5.4-6.7 0.5-0.4 1.1-0.5 1.6 0s0.2 1-0.2 1.5c-0.7 1-1.5 2-2.3 3.1-0.6 1-1.2 2-1.7 3.1s-0.3 2.3 0.5 3.3c0.5 0.7 1.1 0.9 1.8 0.6s1.3-0.7 1.8-1.2c4.5-3.6 7.5-8.1 10-13.1 1.1-2.4 0.4-4.3-2.1-5.3-0.8-0.4-1.6-0.5-2.5-0.7-2.2-0.6-4.3-1.1-6.4-1.7-1.6-0.5-3.3-1.2-4.8-2-4.8-2.6-6.2-6.6-4-11.8 2-4.7 4.9-8.9 8.2-12.8 2.3-2.7 5-4.8 8-6.7 2.5-1.4 5-2.4 7.6-2.1 3.5-0.2 6.3 0.8 8.7 2.8 2.1 1.6 3.2 3.8 2.9 6.5-0.7 6.3-2.8 12.2-6.3 17.5-0.4 0.6-0.9 1.1-1.5 1.6s-1.5 0.4-2 0c-0.8-0.5-0.6-1.2-0.4-1.9 1-2.1 2.1-4.2 3-6.3 1.3-2.8 1.9-5.8 2.3-8.9 0.1-1.1 0.2-2.3 0.1-3.5-0.2-1.8-1.2-2.5-3-2-0.9 0.2-1.7 0.5-2.5 0.9-1.1 0.7-2.2 1.5-3.2 2.3-5 4.2-8.9 9.2-12.3 14.7-0.7 1.2-1.4 2.6-1.9 3.9-0.7 2.2-0.2 3.6 1.9 4.7 2.2 1.2 4.4 2.2 6.7 3 2.6 0.8 4.8 2.1 6.7 4 1.5 1.5 2.6 3.1 2.8 5.3 0.6 7.6-5.8 16.8-14.5 17.5-1.8 0.1-3.8-0.2-5.7-1.2z"/>
</g>
</svg>
