<svg xmlns="http://www.w3.org/2000/svg" viewBox="0 0 218 138"><style>.st0{fill:#544A4A;} .st1{fill:#E85858;}</style><path class="st0" d="M26.8 68.5c-2.4 2.4-6 3.8-11.1 3.8-4.8 0-8.6-1.2-11.2-3.8C1.3 65.2.3 61.7.3 53.9h5.9c0 5.5.6 8.5 2.8 10.7 1.5 1.5 3.7 2.4 6.7 2.4 3.3 0 5.4-.9 6.8-2.4 2.3-2.5 2.8-5.7 2.8-11.3 0-8.9-1.4-12.1-7.5-14.6l-7.6-3.1C2.9 32.6.8 28.5.8 17.8c0-6.1 1.6-11 4.9-14.1 2.6-2.5 6-3.8 10.4-3.8 4.6 0 8.2 1.4 10.7 3.9 3.5 3.5 4.3 7.6 4.3 13.8h-5.9c0-4.5-.6-7.4-2.7-9.8C21.1 6.2 19 5.2 16 5.2c-2.8 0-4.8.9-6.2 2.3-2.2 2.2-3.1 5.8-3.1 10.2 0 8.2 1.2 10.6 7.7 13.3l7.6 3.1c7.7 3.1 9.2 8.7 9.2 19 0 7.5-1.2 12.2-4.4 15.4zM42.7 71.7V.5h5.9v71.2h-5.9zM98.4 71.7V14.4L85.4 52h-4.3L68.3 15.6v56.1h-5.9V.5h5.9l15 41.9L98.4.5h5.9v71.2h-5.9zM132.1 40.2H124v31.5h-6V.5h14c8.4 0 15.4 3.2 15.4 19.9.1 16.7-6.9 19.8-15.3 19.8zm-.3-34.4H124v29.1h7.8c5.8 0 9.8-2.5 9.8-14.5s-4-14.6-9.8-14.6zM159 71.7V.5h5.9v65.9h18.9v5.3H159zM192.9 71.7V.5h24.8v5.3h-18.9v27.6h16.3v5.3h-16.3v27.7h18.9v5.3h-24.8z"/><g><path class="st1" d="M55.8 124.2c-.2-1.3-.2-2.6-.3-3.6.4-10.6 3.5-19.8 9.2-28.2 1.6-2.4 3.4-4.7 5.5-6.7 3.5-3 7.3-5.3 12.1-5 4.9.3 7.8 3.6 7.1 8.5-.5 3.5-1.8 6.7-3.6 9.7-.2.4-.5.7-.9.9-.3.2-.8.4-1.2.3-.5-.2-1-.7-.9-1.3 0-.6.3-1.2.5-1.7l2.4-6.6c.3-.8.5-1.6.5-2.5.1-1.1.2-2.4-1-3.1-1.2-.7-2.3-.2-3.3.6-1.2 1-2.5 2-3.5 3.2-7.4 8.8-12.5 18.6-13.9 30.1-.4 3.7-.1 7.3 1 10.8.5 2 8.3 4.5 16.5-5.8 3.7-4.6 8.5-12.1 13.3-19.2.4-.5 2.4.4 2 1-4.3 7.5-9.7 15.5-14.3 21.1-8.5 10.5-17.4 8.9-20 7.7-4.3-2.2-6.7-5.5-7.2-10.2z"/><path class="st1" d="M99.9 136.2c-3.5-1.7-4.6-4.9-2.7-8.4 1.4-2.6 3.2-4.8 5.4-6.7.5-.4 1.1-.5 1.6 0s.2 1-.2 1.5c-.7 1-1.5 2-2.3 3.1-.6 1-1.2 2-1.7 3.1s-.3 2.3.5 3.3c.5.7 1.1.9 1.8.6.7-.3 1.3-.7 1.8-1.2 4.5-3.6 7.5-8.1 10-13.1 1.1-2.4.4-4.3-2.1-5.3-.8-.4-1.6-.5-2.5-.7-2.2-.6-4.3-1.1-6.4-1.7-1.6-.5-3.3-1.2-4.8-2-4.8-2.6-6.2-6.6-4-11.8 2-4.7 4.9-8.9 8.2-12.8 2.3-2.7 5-4.8 8-6.7 2.5-1.4 5-2.4 7.6-2.1 3.5-.2 6.3.8 8.7 2.8 2.1 1.6 3.2 3.8 2.9 6.5-.7 6.3-2.8 12.2-6.3 17.5-.4.6-.9 1.1-1.5 1.6s-1.5.4-2 0c-.8-.5-.6-1.2-.4-1.9 1-2.1 2.1-4.2 3-6.3 1.3-2.8 1.9-5.8 2.3-8.9.1-1.1.2-2.3.1-3.5-.2-1.8-1.2-2.5-3-2-.9.2-1.7.5-2.5.9-1.1.7-2.2 1.5-3.2 2.3-5 4.2-8.9 9.2-12.3 14.7-.7 1.2-1.4 2.6-1.9 3.9-.7 2.2-.2 3.6 1.9 4.7 2.2 1.2 4.4 2.2 6.7 3 2.6.8 4.8 2.1 6.7 4 1.5 1.5 2.6 3.1 2.8 5.3.6 7.6-5.8 16.8-14.5 17.5-1.8.2-3.8-.2-5.7-1.2zM133.7 136.2c-3.5-1.7-4.6-4.9-2.7-8.4 1.4-2.6 3.2-4.8 5.4-6.7.5-.4 1.1-.5 1.6 0s.2 1-.2 1.5c-.7 1-1.5 2-2.3 3.1-.6 1-1.2 2-1.7 3.1s-.3 2.3.5 3.3c.5.7 1.1.9 1.8.6.7-.3 1.3-.7 1.8-1.2 4.5-3.6 7.5-8.1 10-13.1 1.1-2.4.4-4.3-2.1-5.3-.8-.4-1.6-.5-2.5-.7-2.2-.6-4.3-1.1-6.4-1.7-1.6-.5-3.3-1.2-4.8-2-4.8-2.6-6.2-6.6-4-11.8 2-4.7 4.9-8.9 8.2-12.8 2.3-2.7 5-4.8 8-6.7 2.5-1.4 5-2.4 7.6-2.1 3.5-.2 6.3.8 8.7 2.8 2.1 1.6 3.2 3.8 2.9 6.5-.7 6.3-2.8 12.2-6.3 17.5-.4.6-.9 1.1-1.5 1.6s-1.5.4-2 0c-.8-.5-.6-1.2-.4-1.9 1-2.1 2.1-4.2 3-6.3 1.3-2.8 1.9-5.8 2.3-8.9.1-1.1.2-2.3.1-3.5-.2-1.8-1.2-2.5-3-2-.9.2-1.7.5-2.5.9-1.1.7-2.2 1.5-3.2 2.3-5 4.2-8.9 9.2-12.3 14.7-.7 1.2-1.4 2.6-1.9 3.9-.7 2.2-.2 3.6 1.9 4.7 2.2 1.2 4.4 2.2 6.7 3 2.6.8 4.8 2.1 6.7 4 1.5 1.5 2.6 3.1 2.8 5.3.6 7.6-5.8 16.8-14.5 17.5-1.8.1-3.8-.2-5.7-1.2z"/></g></svg>
